<svg width="181" height="129" viewBox="0 0 181 129" fill="none" xmlns="http://www.w3.org/2000/svg">
    <g opacity="0.8" clip-path="url(#clip0_23_844)">
        <path d="M89.0804 129C114.463 129 135.04 126.443 135.04 123.29C135.04 120.136 114.463 117.579 89.0804 117.579C63.6975 117.579 43.1206 120.136 43.1206 123.29C43.1206 126.443 63.6975 129 89.0804 129Z" fill="#3F3D56"/>
        <path d="M166.826 74.4642L149.059 82.7903L164.784 71.1479C162.228 67.198 159.357 63.4572 156.198 59.9612L79.1432 78.9248L148.745 52.6356C145.565 49.857 142.187 47.3078 138.638 45.0076L21.2248 63.7335C8.75849 79.169 1.96272 98.3425 1.95312 118.106H178.692C178.685 102.779 174.592 87.724 166.826 74.4642Z" fill="#F2F2F2"/>
        <path d="M129.029 39.6019C116.974 33.7803 103.735 30.7636 90.3226 30.7825C63.0254 30.7825 38.6202 43.0382 22.4103 62.2944C50.1683 56.2723 98.4972 45.8477 129.029 39.6019Z" fill="#F2F2F2"/>
        <path opacity="0.4" d="M146.411 48.0159C147.874 48.0159 149.059 46.8422 149.059 45.3944C149.059 43.9466 147.874 42.7729 146.411 42.7729C144.949 42.7729 143.764 43.9466 143.764 45.3944C143.764 46.8422 144.949 48.0159 146.411 48.0159Z" fill="#00BFA6"/>
        <path opacity="0.4" d="M141.511 48.4854C142.537 48.4854 143.368 47.6621 143.368 46.6465C143.368 45.6308 142.537 44.8075 141.511 44.8075C140.485 44.8075 139.654 45.6308 139.654 46.6465C139.654 47.6621 140.485 48.4854 141.511 48.4854Z" fill="#00BFA6"/>
        <path opacity="0.4" d="M21.0727 57.8317C24.1351 57.8317 26.6177 55.3736 26.6177 52.3414C26.6177 49.3091 24.1351 46.851 21.0727 46.851C18.0103 46.851 15.5277 49.3091 15.5277 52.3414C15.5277 55.3736 18.0103 57.8317 21.0727 57.8317Z" fill="#00BFA6"/>
        <path opacity="0.4" d="M10.8104 58.815C12.9587 58.815 14.7002 57.0906 14.7002 54.9635C14.7002 52.8365 12.9587 51.1121 10.8104 51.1121C8.66216 51.1121 6.92065 52.8365 6.92065 54.9635C6.92065 57.0906 8.66216 58.815 10.8104 58.815Z" fill="#00BFA6"/>
        <path d="M181 117.931H0V118.282H181V117.931Z" fill="#2F2E41"/>
        <path d="M160.494 117.931L146.397 97.1978C146.397 97.1978 167.746 104.577 165.323 117.931H160.494Z" fill="#3F3D56"/>
        <path d="M161.047 117.931L175.144 97.1978C175.144 97.1978 153.796 104.577 156.218 117.931H161.047Z" fill="#00BFA6"/>
        <path d="M36.9098 23.3281C36.9098 22.1866 35.2659 21.2612 33.2381 21.2612C33.198 21.2612 33.1583 21.2622 33.1184 21.2629C32.5067 19.4062 29.615 18.0001 26.1395 18.0001C23.1825 18.0001 20.6481 19.018 19.5809 20.4653C18.7924 20.2586 17.9799 20.1556 17.1642 20.1589C14.0549 20.1589 11.5343 21.5778 11.5343 23.3281C11.5343 24.9181 13.6144 26.2343 16.3261 26.4622C18.2966 26.819 21.3746 27.0485 24.834 27.0485C30.707 27.0485 35.0044 25.9392 35.1122 25.1054C36.1883 24.7451 36.9098 24.0842 36.9098 23.3281Z" fill="#F2F2F2"/>
        <path d="M125.635 24.2066C125.635 23.0651 123.991 22.1397 121.964 22.1397C121.923 22.1397 121.884 22.1407 121.844 22.1414C121.232 20.2847 118.34 18.8786 114.865 18.8786C111.908 18.8786 109.374 19.8965 108.306 21.3438C107.518 21.1372 106.705 21.0341 105.89 21.0374C102.78 21.0374 100.26 22.4563 100.26 24.2066C100.26 25.7966 102.34 27.1128 105.052 27.3407C107.022 27.6975 110.1 27.927 113.559 27.927C119.432 27.927 123.73 26.8178 123.838 25.9839C124.914 25.6236 125.635 24.9627 125.635 24.2066Z" fill="#F2F2F2"/>
        <path d="M175.144 9.35191C175.144 7.34827 172.259 5.724 168.699 5.724C168.629 5.724 168.559 5.72573 168.489 5.72699C167.416 2.46802 162.34 -1.52588e-05 156.24 -1.52588e-05C151.049 -1.52588e-05 146.601 1.78666 144.728 4.32689C143.344 3.96422 141.917 3.78342 140.486 3.78912C135.028 3.78912 130.604 6.27967 130.604 9.3519C130.604 12.1427 134.255 14.453 139.015 14.853C142.473 15.4792 147.876 15.8821 153.948 15.8821C164.257 15.8821 171.8 13.9351 171.989 12.4715C173.878 11.839 175.144 10.6789 175.144 9.35191Z" fill="#F2F2F2"/>
        <path d="M101.177 50.9375C97.5066 44.7966 90.2448 44.5104 90.2448 44.5104C90.2448 44.5104 83.1687 43.6144 78.6293 52.9671C74.3983 61.6845 68.559 70.1014 77.6892 72.1421L79.3384 67.0596L80.3598 72.5204C81.6597 72.613 82.9639 72.6351 84.2663 72.5865C94.0441 72.274 103.356 72.678 103.056 69.2039C102.658 64.5856 104.709 56.8462 101.177 50.9375Z" fill="#2F2E41"/>
        <path d="M77.1679 104.716C77.0601 105.392 76.9036 106.059 76.6996 106.712C76.47 107.351 76.1154 107.943 75.9053 108.589C75.2359 110.648 76.1639 112.945 77.6461 114.534C78.9315 115.907 80.5906 116.883 82.4233 117.343C83.7605 117.676 85.1508 117.724 86.5287 117.77C90.3444 117.898 94.2582 118.013 97.8738 116.799C99.0161 116.406 100.119 115.909 101.17 115.316C101.502 115.16 101.794 114.932 102.025 114.649C102.301 114.261 102.336 113.756 102.334 113.281C102.326 111.68 101.998 110.086 102.076 108.487C102.119 107.6 102.286 106.715 102.204 105.832C102.09 104.828 101.665 103.884 100.988 103.129C100.312 102.374 99.4159 101.844 98.4234 101.613C97.3977 101.395 96.3339 101.513 95.2897 101.613C92.5792 101.871 89.8571 101.991 87.1341 101.974C84.352 101.956 81.587 101.536 78.8186 101.492C78 101.479 78.0165 101.729 77.7559 102.513C77.5158 103.235 77.3194 103.971 77.1679 104.716Z" fill="#2F2E41"/>
        <path d="M85.0635 65.168C84.9298 65.8612 84.7853 66.5797 84.3646 67.1494C83.8806 67.8047 83.0914 68.1792 82.5707 68.8064C81.7869 69.7505 81.742 71.079 81.7387 72.3011C81.7357 73.4269 81.7588 74.6277 82.3929 75.5623C82.8044 76.1688 83.4306 76.594 84.0425 77.0023C86.4204 78.589 88.99 80.2042 91.857 80.2565C93.0449 80.2782 94.3185 79.9745 95.1002 79.0885C95.4376 78.6723 95.703 78.2036 95.8854 77.7014C96.6185 75.9121 97.0628 74.0199 97.2023 72.0939C97.2675 71.1878 97.2613 70.2553 96.9516 69.4002C96.6033 68.4387 95.899 67.6476 95.4336 66.736C94.8834 65.652 94.6822 64.427 94.857 63.2262C94.8802 63.1417 94.8731 63.0518 94.8368 62.9719C94.7985 62.9291 94.7508 62.8957 94.6973 62.8742C94.6438 62.8527 94.586 62.8438 94.5284 62.8481L88.8437 62.4429C88.3142 62.4169 87.787 62.3572 87.2653 62.2642C86.9589 62.2025 86.1495 61.7715 85.8573 61.8861C85.3164 62.0982 85.1744 64.5932 85.0635 65.168Z" fill="#FFB8B8"/>
        <path opacity="0.1" d="M85.0635 65.168C84.9298 65.8612 84.7853 66.5797 84.3646 67.1494C83.8806 67.8047 83.0914 68.1792 82.5707 68.8064C81.7869 69.7505 81.742 71.079 81.7387 72.3011C81.7357 73.4269 81.7588 74.6277 82.3929 75.5623C82.8044 76.1688 83.4306 76.594 84.0425 77.0023C86.4204 78.589 88.99 80.2042 91.857 80.2565C93.0449 80.2782 94.3185 79.9745 95.1002 79.0885C95.4376 78.6723 95.703 78.2036 95.8854 77.7014C96.6185 75.9121 97.0628 74.0199 97.2023 72.0939C97.2675 71.1878 97.2613 70.2553 96.9516 69.4002C96.6033 68.4387 95.899 67.6476 95.4336 66.736C94.8834 65.652 94.6822 64.427 94.857 63.2262C94.8802 63.1417 94.8731 63.0518 94.8368 62.9719C94.7985 62.9291 94.7508 62.8957 94.6973 62.8742C94.6438 62.8527 94.586 62.8438 94.5284 62.8481L88.8437 62.4429C88.3142 62.4169 87.787 62.3572 87.2653 62.2642C86.9589 62.2025 86.1495 61.7715 85.8573 61.8861C85.3164 62.0982 85.1744 64.5932 85.0635 65.168Z" fill="black"/>
        <path d="M90.5 65.9229C95.1061 65.9229 98.8402 62.2257 98.8402 57.6649C98.8402 53.1041 95.1061 49.4069 90.5 49.4069C85.8938 49.4069 82.1598 53.1041 82.1598 57.6649C82.1598 62.2257 85.8938 65.9229 90.5 65.9229Z" fill="#FFB8B8"/>
        <path d="M86.2333 76.1608C86.668 76.6107 87.1286 77.0561 87.6982 77.3198C88.2782 77.5571 88.9009 77.6745 89.5284 77.6648C91.0318 77.7067 92.6615 77.434 93.7074 76.3638C95.0555 74.9842 95.0111 72.7592 96.0678 71.1498C96.153 71.0039 96.2692 70.878 96.4083 70.781C96.5856 70.6855 96.7859 70.6399 96.9875 70.6492C98.3221 70.6368 99.4847 71.4939 100.534 72.3107C101.004 72.6765 101.486 73.0556 101.782 73.5697C101.99 73.9705 102.132 74.4013 102.203 74.8461C102.724 77.3627 102.892 79.9358 103.06 82.4993C103.152 83.9153 103.245 85.3326 103.238 86.7515C103.215 91.4261 102.118 96.0225 101.027 100.571C100.886 101.157 100.693 101.812 100.155 102.092C99.9153 102.199 99.6576 102.261 99.395 102.276C96.2695 102.64 93.1375 103.003 89.9909 103.051C88.7629 103.07 87.5355 103.041 86.3086 102.963C86.0974 102.96 85.888 102.924 85.6883 102.856C85.4173 102.727 85.1844 102.531 85.012 102.287C83.31 100.164 83.2095 97.2278 83.2204 94.5167C83.247 87.8883 83.4862 81.2652 83.9379 74.6474C83.9752 74.1012 83.9834 73.4378 83.5859 73.0081C84.3016 74.1427 85.2971 75.1919 86.2333 76.1608Z" fill="#D0CDE1"/>
        <path d="M84.4668 66.6257C84.1851 67.1306 82.1084 68.3843 81.7074 68.8027C79.4673 71.1407 75.3788 71.0529 73.3301 73.557C72.6093 74.4381 72.2348 75.5451 71.9594 76.6456C71.5698 78.2022 71.3618 79.8997 72.0144 81.3674C72.6423 82.7796 73.9641 83.7559 74.8616 85.0174C75.8469 86.4025 76.29 88.0843 76.7145 89.7256C77.028 90.9374 77.3441 92.1793 77.222 93.4244C77.0832 94.84 76.3914 96.1363 75.9829 97.4998C75.5744 98.8634 75.5039 100.487 76.4484 101.559C77.1423 102.346 78.2307 102.659 79.271 102.834C80.6034 103.032 81.9471 103.148 83.2941 103.181C84.4833 103.233 85.7942 103.243 86.7084 102.488C87.4298 101.893 87.7433 100.926 87.7839 99.9968C87.8245 99.0676 87.6292 98.1467 87.507 97.2246C87.3802 96.2687 87.3315 95.3045 87.2907 94.3412C87.1078 90.0192 87.0828 85.6944 87.2158 81.3668C87.2435 80.4663 87.2771 79.5547 87.0832 78.6745C86.8281 77.5168 86.1963 76.4822 85.669 75.4186C84.6225 73.3073 84.1276 71.2564 84.2893 68.9098C84.449 66.5937 85.4691 64.8291 84.4668 66.6257Z" fill="#00BFA6"/>
        <path d="M96.1783 66.8013C96.6074 67.2379 98.0653 67.3818 98.6111 67.663C99.1245 67.8979 99.6602 68.0815 100.21 68.2113C102.201 68.78 104.095 69.6405 105.828 70.7644C106.189 70.973 106.507 71.2454 106.768 71.5679C107.073 71.9885 107.184 72.5133 107.288 73.021C107.555 74.3318 107.823 75.6583 107.763 76.9942C107.7 78.4122 107.268 79.7856 106.84 81.1403L105.241 86.2022C104.048 89.9805 102.846 93.796 102.511 97.7408C102.325 99.9272 102.407 102.128 102.757 104.294C102.792 104.512 102.821 104.762 102.676 104.929C102.571 105.032 102.432 105.095 102.284 105.108C101.513 105.227 100.766 104.837 100.066 104.493C97.9292 103.44 95.6483 102.701 93.2958 102.299C94.2151 100.984 94.9244 99.5358 95.3987 98.0067C95.6681 97.0357 95.8803 96.05 96.0341 95.0546L96.778 90.7947C97.0806 89.2377 97.2937 87.6649 97.4161 86.0839C97.4723 85.4906 97.4374 84.8923 97.3125 84.3094C97.1411 83.7546 96.9135 83.2184 96.6331 82.709C95.4072 80.1841 94.832 77.3027 95.3144 74.5421C95.5255 73.334 95.9357 72.1243 95.7646 70.91C95.6001 69.7425 95.7711 68.8352 95.4685 67.6798C94.2264 62.9358 95.3711 65.9798 96.1783 66.8013Z" fill="#00BFA6"/>
        <path d="M73.3088 77.5491C72.75 78.6974 71.8156 79.6757 71.4976 80.9109C71.3738 81.4882 71.3208 82.0782 71.3396 82.668C71.3321 83.557 71.3272 84.464 71.6029 85.3101C71.7804 85.8548 72.0692 86.3572 72.2772 86.8912C72.5672 87.6372 72.6964 88.4351 72.6565 89.2335C72.6003 90.3397 72.2208 91.4134 72.1912 92.5206C72.1445 94.2616 72.9578 95.8984 73.7514 97.4528C73.9512 96.963 74.2566 96.5223 74.6463 96.1616C75.036 95.8009 75.5006 95.5289 76.0076 95.3645C76.5146 95.2002 77.0517 95.1475 77.5814 95.2102C78.1111 95.2729 78.6206 95.4493 79.0742 95.7273C79.2835 95.5359 79.3059 95.2215 79.3141 94.9395C79.3727 92.9196 79.4293 90.8996 79.4838 88.8795C79.5697 85.7554 79.6516 82.5895 78.9257 79.548C78.598 78.1748 78.0881 76.8068 77.1534 75.7417C76.6611 75.1808 74.9902 73.7035 74.1822 74.3318C73.8189 74.6144 73.9038 75.3835 73.8462 75.773C73.7593 76.3886 73.5781 76.9875 73.3088 77.5491Z" fill="#00BFA6"/>
        <path d="M107.927 74.2399C108.191 75.055 108.207 75.9258 108.212 76.7818C108.223 78.528 108.2 80.274 108.142 82.0197C108.113 82.9134 108.072 83.8194 107.799 84.6715C107.618 85.2334 107.34 85.7604 107.153 86.3205C106.595 87.999 106.9 89.8195 106.948 91.5861C106.982 92.1579 106.932 92.7315 106.801 93.2894C106.507 94.3846 105.714 95.2696 105.161 96.262C104.636 97.2045 104.319 98.2609 103.692 99.1401C103.065 100.019 101.979 100.716 100.927 100.446C100.129 100.242 99.5627 99.5427 99.1708 98.8254C98.3156 97.2481 98.0231 95.4312 98.3407 93.6688C98.7341 91.5246 100.006 89.6224 100.465 87.491C101.095 84.5641 100.137 81.5437 100.166 78.5512C100.153 78.0821 100.217 77.614 100.356 77.1654C100.597 76.4818 101.114 75.936 101.591 75.3878C102.188 74.7027 102.742 73.9825 103.251 73.2311C103.592 72.7264 104.057 71.4283 104.663 71.3204C106.016 71.0794 107.591 73.205 107.927 74.2399Z" fill="#00BFA6"/>
        <path d="M66.2886 103.414C65.5405 103.228 64.7696 103.147 63.9987 103.173C63.1886 103.218 62.3974 103.432 61.6776 103.803C60.9578 104.173 60.326 104.691 59.824 105.322C59.3221 105.954 58.9616 106.683 58.7665 107.463C58.5714 108.243 58.5462 109.054 58.6925 109.845C58.8793 110.7 59.1847 111.527 59.5999 112.3C60.2072 113.52 60.9356 114.737 62.0598 115.519C62.7175 115.977 63.4787 116.262 64.2308 116.543L70.1521 118.751C71.0232 119.076 71.8944 119.401 72.7741 119.703C77.1937 121.215 81.8015 122.122 86.4693 122.398C87.8911 122.482 89.3345 122.505 90.7215 122.185C91.0507 122.109 91.4018 121.996 91.5924 121.719C91.7052 121.524 91.7718 121.307 91.787 121.083L92.1513 118.557C92.2026 118.202 92.252 117.827 92.1203 117.492C91.9534 117.068 91.535 116.801 91.1361 116.574C87.2433 114.36 82.6979 113.139 79.4213 110.1C78.6499 109.385 78.0044 108.251 77.0671 107.765C76.0043 107.215 74.7527 106.9 73.6542 106.392C71.2526 105.282 68.8914 104.007 66.2886 103.414Z" fill="#2F2E41"/>
        <path opacity="0.1" d="M72.2003 106.819C74.2932 107.469 83.1296 111.967 84.6442 113.538C84.4412 113.611 77.5531 109.788 77.3464 109.727C75.4676 109.169 73.5784 108.607 71.7942 107.79C71.4353 107.625 69.4624 106.853 69.5518 106.404C69.6526 105.898 71.8288 106.704 72.2003 106.819Z" fill="black"/>
        <path d="M98.311 123.708C98.4297 123.717 98.5476 123.683 98.6427 123.612C98.6845 123.559 98.7151 123.498 98.7329 123.433C98.7507 123.368 98.7553 123.3 98.7464 123.234C98.7432 122.087 98.74 120.94 98.7367 119.793C97.7374 119.321 96.6196 119.17 95.5225 119.025L90.4033 118.347C90.5209 118.363 89.6028 120.531 89.7436 120.82C89.9917 121.33 91.8877 121.782 92.4228 122.023C94.283 122.86 96.2159 123.78 98.311 123.708Z" fill="#FFB8B8"/>
        <path d="M82.2493 119.781C81.2828 119.933 80.204 120.068 79.578 120.813C78.7842 121.758 79.1221 123.166 79.5008 124.336C79.5571 124.573 79.67 124.793 79.8301 124.978C80.0885 125.23 80.4845 125.267 80.8468 125.29C81.7283 125.345 82.6664 125.388 83.4366 124.96C83.7854 124.732 84.1213 124.485 84.4426 124.22C85.0105 123.846 85.6348 123.563 86.2922 123.382C87.5007 123.006 88.7447 122.752 90.005 122.625C90.5016 122.602 90.9933 122.517 91.4677 122.37C91.9324 122.196 92.3627 121.853 92.4977 121.379C92.6761 120.754 92.3091 120.117 91.9571 119.568C91.5185 118.885 91.054 118.166 90.4001 117.663C89.4463 116.929 88.9744 117.492 88.0136 117.962C86.195 118.851 84.2519 119.464 82.2493 119.781Z" fill="#FFB8B8"/>
        <path d="M79.7236 120.643L73.5863 118.847C72.8399 118.628 72.0807 118.408 71.3024 118.408C70.5241 118.409 69.7097 118.662 69.205 119.248C68.7291 119.801 68.5928 120.557 68.4742 121.274L68.2204 122.808C68.0914 123.587 67.9622 124.382 68.0783 125.163C68.1944 125.945 68.5973 126.725 69.2975 127.104C70.1468 127.563 71.1877 127.338 72.1356 127.147C74.0501 126.759 75.9975 126.552 77.9515 126.529C78.6861 126.52 79.4566 126.529 80.1058 126.189C80.8774 125.784 81.339 124.928 81.4184 124.067C81.5391 122.756 81.0981 121.045 79.7236 120.643Z" fill="#2F2E41"/>
        <path d="M100.723 119.078C101.519 118.94 102.221 118.492 102.983 118.228C104.056 117.856 105.219 117.856 106.356 117.86C106.774 117.861 107.218 117.87 107.565 118.099C108.066 118.43 108.195 119.09 108.28 119.68L108.794 123.238C108.89 123.907 108.986 124.594 108.836 125.254C108.685 125.913 108.231 126.548 107.57 126.719C106.768 126.925 105.981 126.418 105.223 126.084C103.329 125.251 101.128 125.464 99.1529 124.841C98.7864 124.725 98.3939 124.548 98.2444 124.198C98.1769 124 98.1528 123.79 98.1738 123.583C98.2076 122.439 97.964 120.877 98.3117 119.784C98.6244 118.802 99.8352 119.078 100.723 119.078Z" fill="#2F2E41"/>
        <path d="M113.711 101.982C114.937 101.678 116.209 101.592 117.465 101.728C118.469 101.838 119.503 102.114 120.236 102.802C121.128 103.639 121.415 104.934 121.438 106.151C121.478 108.574 120.666 110.936 119.142 112.832C118.77 113.312 118.327 113.734 117.829 114.084C117.291 114.417 116.719 114.69 116.121 114.899L102.86 120.078C99.3716 121.44 95.8707 122.807 92.232 123.705C92.1325 123.752 92.0244 123.78 91.9141 123.785C91.8037 123.791 91.6934 123.774 91.5895 123.737C91.4857 123.7 91.3904 123.642 91.3093 123.568C91.2282 123.494 91.163 123.404 91.1174 123.305C89.9555 121.661 88.9808 119.896 88.211 118.041C88.1746 117.996 88.1494 117.944 88.1376 117.889C88.1258 117.833 88.1278 117.775 88.1433 117.72C88.1588 117.665 88.1875 117.615 88.2268 117.573C88.2662 117.532 88.3151 117.5 88.3694 117.481L97.7487 112.145C98.4205 111.763 99.0998 111.375 99.6577 110.843C100.063 110.454 100.395 109.996 100.638 109.492C100.832 109.09 100.85 108.141 101.099 107.844C101.342 107.553 102.174 107.53 102.558 107.415C103.099 107.251 103.63 107.052 104.146 106.821C106.244 105.891 108.112 104.541 110.124 103.453C111.252 102.814 112.457 102.32 113.711 101.982Z" fill="#2F2E41"/>
        <path opacity="0.1" d="M108.394 105.967C106.783 107.166 104.696 108.267 103.099 109.497C102.554 109.917 93.4677 114.975 93.3392 115.647C94.8292 115.895 104.32 109.321 105.678 108.665C107.036 108.009 108.24 107.084 109.433 106.165C109.737 105.931 111.025 105.228 110.153 104.966C109.661 104.819 108.757 105.728 108.394 105.967Z" fill="black"/>
        <path d="M99.5545 50.3453L92.3801 46.6245L82.4729 48.1466L80.423 57.1108L85.5256 56.9164L86.951 53.6231V56.8621L89.3054 56.7724L90.672 51.5294L91.5261 57.1108L99.8961 56.9416L99.5545 50.3453Z" fill="#2F2E41"/>
        <path d="M97.9529 68.7341H82.5146V87.1829H97.9529V68.7341Z" fill="#3F3D56"/>
        <path d="M75.1857 100.821C75.5402 101.345 75.9555 101.858 76.5248 102.14C76.8879 102.305 77.284 102.384 77.683 102.374C78.082 102.363 78.4733 102.262 78.8269 102.079C79.5332 101.704 80.1114 101.13 80.4882 100.43C81.2679 99.0668 81.4294 97.4354 81.3321 95.8717C81.2348 94.308 80.8976 92.7682 80.7484 91.2085C80.6399 90.0747 80.631 88.9341 80.6223 87.7953C80.5954 87.5558 80.6461 87.3141 80.7672 87.105C80.9399 86.8715 81.2561 86.8072 81.5363 86.7247C83.1099 86.2618 84.1544 84.8014 84.9032 83.3549C85.4033 82.3891 85.8381 81.3333 85.7417 80.2521C85.6452 79.171 84.8604 78.0819 83.7699 77.9716C82.8709 77.8806 82.0408 78.446 81.3923 79.0692C79.7564 80.6511 78.705 82.7315 78.4071 84.9763C78.2647 86.0756 78.3055 87.2048 78.0036 88.272C77.3588 90.5506 75.3414 91.9477 74.3361 93.998C73.2284 96.2573 73.8398 98.8222 75.1857 100.821Z" fill="#FFB8B8"/>
        <path d="M104.872 92.116C104.643 92.6445 104.309 93.1221 103.89 93.5206C103.471 93.9192 102.976 94.2306 102.433 94.4365C101.759 94.7046 101.015 94.7497 100.313 94.5651C99.9646 94.4694 99.6433 94.2955 99.374 94.057C99.1046 93.8184 98.8944 93.5216 98.7597 93.1895C98.6522 92.855 98.5933 92.5071 98.5847 92.1562C98.4838 90.6196 98.5228 89.0362 99.0865 87.601C99.304 87.0475 99.5971 86.5225 99.7687 85.9534C99.9373 85.2962 100.024 84.6208 100.026 83.9427L100.211 79.75C100.242 79.4456 100.22 79.1383 100.148 78.8409C99.9631 78.2343 99.3905 77.84 98.8651 77.4782C97.5962 76.6045 96.3423 75.585 95.7275 74.181C95.5162 73.7582 95.4406 73.2817 95.5106 72.8152C95.684 71.9826 96.5326 71.4436 97.3713 71.2621C97.92 71.1433 98.4874 71.1357 99.0392 71.2398C99.591 71.3439 100.116 71.5575 100.582 71.8678C101.048 72.178 101.446 72.5785 101.752 73.0452C102.058 73.5118 102.265 74.0348 102.361 74.5828C102.444 75.056 102.443 75.5393 102.491 76.0171C102.594 77.0307 102.919 78.0077 103.123 79.0063C103.623 81.4661 103.364 84.0087 103.859 86.4681C104.273 88.5244 105.834 89.8661 104.872 92.116Z" fill="#FFB8B8"/>
        <path d="M9.3394 117.758L8.9845 117.752C9.12176 113.844 9.54279 109.952 10.2443 106.105C11.779 97.8677 14.3309 92.4579 17.8291 90.0259L18.0329 90.3135C9.86101 95.9946 9.34356 117.541 9.3394 117.758Z" fill="#2F2E41"/>
        <path d="M13.7757 117.674L13.4208 117.667C13.4284 117.278 13.6502 108.107 17.2968 105.572L17.5006 105.859C14.0011 108.292 13.7774 117.581 13.7757 117.674Z" fill="#2F2E41"/>
        <path d="M20.052 90.3456C21.032 90.3456 21.8265 89.5589 21.8265 88.5885C21.8265 87.6181 21.032 86.8315 20.052 86.8315C19.0719 86.8315 18.2775 87.6181 18.2775 88.5885C18.2775 89.5589 19.0719 90.3456 20.052 90.3456Z" fill="#00BFA6"/>
        <path d="M19.1732 105.456C20.1532 105.456 20.9477 104.669 20.9477 103.699C20.9477 102.728 20.1532 101.942 19.1732 101.942C18.1932 101.942 17.3987 102.728 17.3987 103.699C17.3987 104.669 18.1932 105.456 19.1732 105.456Z" fill="#00BFA6"/>
        <path d="M12.9484 91.3988C13.2819 93.5079 12.4127 95.3943 12.4127 95.3943C12.4127 95.3943 11.0028 93.8612 10.6693 91.7521C10.3358 89.6429 11.205 87.7565 11.205 87.7565C11.205 87.7565 12.6149 89.2896 12.9484 91.3988Z" fill="#2F2E41"/>
        <path d="M18.7488 96.5212C16.7094 97.2138 14.6819 96.6951 14.6819 96.6951C14.6819 96.6951 15.9609 95.0533 18.0004 94.3606C20.0398 93.668 22.0673 94.1867 22.0673 94.1867C22.0673 94.1867 20.7883 95.8285 18.7488 96.5212Z" fill="#2F2E41"/>
        <path d="M18.8144 109.903C17.8913 110.19 16.9083 110.232 15.9637 110.025C16.5635 109.269 17.3713 108.7 18.2897 108.389C19.2082 108.077 20.1982 108.034 21.1403 108.267C20.5231 109.004 19.721 109.569 18.8144 109.903Z" fill="#2F2E41"/>
    </g>
    <defs>
        <clipPath id="clip0_23_844">
            <rect width="181" height="129" fill="white"/>
        </clipPath>
    </defs>
</svg>
